<svg width="37" height="37" viewBox="0 0 37 37" fill="none" xmlns="http://www.w3.org/2000/svg">
<path d="M20.8125 13.875C19.5353 13.875 18.5 12.8397 18.5 11.5625C18.5 10.2853 19.5353 9.25 20.8125 9.25C22.0897 9.25 23.125 10.2853 23.125 11.5625C23.1236 12.8391 22.0891 13.8736 20.8125 13.875Z" fill="#0343A4"/>
<path d="M29.2916 3.08325H7.70825C5.15702 3.0907 3.0907 5.15702 3.08325 7.70825V21.3674L9.06492 15.3858C10.8956 13.6437 13.7709 13.6437 15.6016 15.3858L20.0283 19.8365L21.3966 18.4683C23.2056 16.6698 26.1275 16.6698 27.9366 18.4683L33.9166 24.4483V7.70825C33.9091 5.15702 31.8428 3.0907 29.2916 3.08325ZM20.8124 13.8749C19.5353 13.8749 18.4999 12.8396 18.4999 11.5624C18.4999 10.2853 19.5353 9.24992 20.8124 9.24992C22.0896 9.24992 23.1249 10.2853 23.1249 11.5624C23.1235 12.839 22.089 13.8735 20.8124 13.8749Z" fill="#A7CAFE"/>
<path d="M15.6016 15.3859C13.7709 13.6438 10.8956 13.6438 9.06492 15.3859L3.08325 21.3676V29.2917C3.09071 31.843 5.15704 33.9093 7.70825 33.9167H29.2916C30.5482 33.9162 31.7505 33.4041 32.6216 32.4984L15.6016 15.3859Z" fill="#005EEA"/>
<path d="M33.9166 24.4483L27.9366 18.4683C26.1275 16.6698 23.2056 16.6698 21.3966 18.4683L20.0283 19.8365L32.6149 32.4914C33.4506 31.6361 33.918 30.4874 33.9166 29.2916V24.4483Z" fill="#0343A4"/>
</svg>
