<svg width="37" height="37" viewBox="0 0 37 37" fill="none" xmlns="http://www.w3.org/2000/svg">
<path d="M6.16659 24.6666C4.46371 24.6666 3.08325 23.2861 3.08325 21.5833C3.08325 19.8804 4.46371 18.4999 6.16659 18.4999C7.86946 18.4999 9.24992 19.8804 9.24992 21.5833C9.24771 23.2852 7.86855 24.6644 6.16659 24.6666ZM6.16659 9.24992C4.46371 9.24992 3.08325 7.86946 3.08325 6.16659C3.08325 4.46371 4.46371 3.08325 6.16659 3.08325C7.86946 3.08325 9.24992 4.46371 9.24992 6.16659C9.24771 7.86855 7.86855 9.24771 6.16659 9.24992ZM21.5833 9.24992C19.8804 9.24992 18.4999 7.86946 18.4999 6.16659C18.4999 4.46371 19.8804 3.08325 21.5833 3.08325C23.2861 3.08325 24.6666 4.46371 24.6666 6.16659C24.6644 7.86855 23.2852 9.24771 21.5833 9.24992ZM21.5833 24.6666C19.8804 24.6666 18.4999 23.2861 18.4999 21.5833C18.4999 19.8804 19.8804 18.4999 21.5833 18.4999C23.2861 18.4999 24.6666 19.8804 24.6666 21.5833C24.6644 23.2852 23.2852 24.6644 21.5833 24.6666Z" fill="#005EEA"/>
<path d="M15.4166 33.9166C13.7137 33.9166 12.3333 32.5361 12.3333 30.8333C12.3333 29.1304 13.7137 27.7499 15.4166 27.7499C17.1195 27.7499 18.4999 29.1304 18.4999 30.8333C18.4977 32.5352 17.1186 33.9144 15.4166 33.9166ZM15.4166 18.4999C13.7137 18.4999 12.3333 17.1195 12.3333 15.4166C12.3333 13.7137 13.7137 12.3333 15.4166 12.3333C17.1195 12.3333 18.4999 13.7137 18.4999 15.4166C18.4977 17.1186 17.1186 18.4977 15.4166 18.4999ZM30.8333 18.4999C29.1304 18.4999 27.7499 17.1195 27.7499 15.4166C27.7499 13.7137 29.1304 12.3333 30.8333 12.3333C32.5361 12.3333 33.9166 13.7137 33.9166 15.4166C33.9144 17.1186 32.5352 18.4977 30.8333 18.4999ZM30.8333 33.9166C29.1304 33.9166 27.7499 32.5361 27.7499 30.8333C27.7499 29.1304 29.1304 27.7499 30.8333 27.7499C32.5361 27.7499 33.9166 29.1304 33.9166 30.8333C33.9144 32.5352 32.5352 33.9144 30.8333 33.9166Z" fill="#005EEA"/>
<path d="M18.9291 7.70833C18.357 6.76016 18.357 5.57317 18.9291 4.625H8.82092C9.39302 5.57317 9.39302 6.76016 8.82092 7.70833H18.9291ZM6.16667 18.5C6.70961 18.5031 7.24186 18.6512 7.70833 18.9291V8.82092C6.76016 9.39302 5.57317 9.39302 4.625 8.82092V18.9291C5.09148 18.6512 5.62372 18.5031 6.16667 18.5Z" fill="#B8D4FF"/>
<path d="M30.8333 27.7499C31.3763 27.753 31.9085 27.9011 32.375 28.179V18.0708C31.4268 18.6429 30.2398 18.6429 29.2917 18.0708V28.179C29.7581 27.9011 30.2904 27.753 30.8333 27.7499ZM15.4167 27.7499C15.9596 27.753 16.4919 27.9011 16.9583 28.179V18.0708C16.0102 18.6429 14.8232 18.6429 13.875 18.0708V28.179C14.3415 27.9011 14.8737 27.753 15.4167 27.7499Z" fill="#005EEA"/>
<path d="M18.9292 20.0417H16.9585V23.1251H18.9292C18.3571 22.1769 18.3571 20.9899 18.9292 20.0417ZM13.8751 23.1251V20.0417H8.82104C9.39314 20.9899 9.39314 22.1769 8.82104 23.1251H13.8751Z" fill="#B8D4FF"/>
<path d="M28.179 29.2917H18.0708C18.6429 30.2398 18.6429 31.4268 18.0708 32.375H28.179C27.6069 31.4268 27.6069 30.2398 28.179 29.2917ZM28.179 16.9583C27.6069 16.0102 27.6069 14.8232 28.179 13.875H18.0708C18.6429 14.8232 18.6429 16.0102 18.0708 16.9583H28.179Z" fill="#005EEA"/>
<path d="M23.1251 13.8751V8.82104C22.1769 9.39314 20.9899 9.39314 20.0417 8.82104V13.8751H23.1251ZM20.0417 16.9585V18.9292C20.9899 18.3571 22.1769 18.3571 23.1251 18.9292V16.9585H20.0417Z" fill="#B8D4FF"/>
</svg>
