<svg width="133" height="32" viewBox="0 0 133 32" fill="none" xmlns="http://www.w3.org/2000/svg">
<path d="M30.8241 9.94931L14.5374 2.77998C14.2115 2.63711 13.8423 2.62944 13.5107 2.75864C13.3469 2.82355 13.1975 2.92023 13.0712 3.04311C12.9449 3.166 12.8441 3.31265 12.7747 3.47464L8.77475 12.808C8.63546 13.133 8.63095 13.5 8.76223 13.8283C8.8935 14.1566 9.14979 14.4193 9.47475 14.5586L18.7507 18.5333L17.0974 22.6666H11.3334V18.6666H8.66675V29.3333H11.3334V25.3333H17.0974C18.1947 25.3333 19.1667 24.6746 19.5721 23.656L21.2014 19.584L25.7601 21.5373C26.0836 21.6763 26.449 21.6817 26.7765 21.5523C27.104 21.4229 27.367 21.1693 27.5081 20.8466L31.5081 11.704C31.6496 11.3805 31.6571 11.0142 31.5288 10.6852C31.4006 10.3563 31.1472 10.0916 30.8241 9.94931ZM32.5734 21.8293L30.0961 20.84L32.7601 14.1733L35.2374 15.1613L32.5734 21.8293Z" fill="white"/>
<path d="M46.264 26V23.12L53.8 14.816L54.328 16.016H46.576V12.896H57.52V15.776L50.176 24.104L49.648 22.88H57.544V26H46.264ZM65.4445 26.288C64.0525 26.288 62.8445 25.984 61.8205 25.376C60.7965 24.752 60.0045 23.92 59.4445 22.88C58.8845 21.84 58.6045 20.688 58.6045 19.424C58.6045 18.112 58.8925 16.944 59.4685 15.92C60.0605 14.896 60.8525 14.088 61.8445 13.496C62.8365 12.904 63.9565 12.608 65.2045 12.608C66.2445 12.608 67.1645 12.776 67.9645 13.112C68.7645 13.432 69.4365 13.888 69.9805 14.48C70.5405 15.072 70.9645 15.76 71.2525 16.544C71.5405 17.312 71.6845 18.152 71.6845 19.064C71.6845 19.32 71.6685 19.576 71.6365 19.832C71.6205 20.072 71.5805 20.28 71.5165 20.456H61.7005V17.816H69.4765L67.7725 19.064C67.9325 18.376 67.9245 17.768 67.7485 17.24C67.5725 16.696 67.2605 16.272 66.8125 15.968C66.3805 15.648 65.8445 15.488 65.2045 15.488C64.5805 15.488 64.0445 15.64 63.5965 15.944C63.1485 16.248 62.8125 16.696 62.5885 17.288C62.3645 17.88 62.2765 18.6 62.3245 19.448C62.2605 20.184 62.3485 20.832 62.5885 21.392C62.8285 21.952 63.1965 22.392 63.6925 22.712C64.1885 23.016 64.7885 23.168 65.4925 23.168C66.1325 23.168 66.6765 23.04 67.1245 22.784C67.5885 22.528 67.9485 22.176 68.2045 21.728L71.0845 23.096C70.8285 23.736 70.4205 24.296 69.8605 24.776C69.3165 25.256 68.6685 25.632 67.9165 25.904C67.1645 26.16 66.3405 26.288 65.4445 26.288ZM73.8044 26V12.896H77.1644V15.488L76.9724 14.912C77.2764 14.128 77.7644 13.552 78.4364 13.184C79.1244 12.8 79.9244 12.608 80.8364 12.608C81.8284 12.608 82.6924 12.816 83.4284 13.232C84.1804 13.648 84.7644 14.232 85.1804 14.984C85.5964 15.72 85.8044 16.584 85.8044 17.576V26H82.2044V18.344C82.2044 17.832 82.1004 17.392 81.8924 17.024C81.7004 16.656 81.4204 16.368 81.0524 16.16C80.7004 15.952 80.2844 15.848 79.8044 15.848C79.3404 15.848 78.9244 15.952 78.5564 16.16C78.1884 16.368 77.9004 16.656 77.6924 17.024C77.5004 17.392 77.4044 17.832 77.4044 18.344V26H73.8044ZM94.4836 26.144C92.8996 26.144 91.6676 25.72 90.7876 24.872C89.9236 24.008 89.4916 22.808 89.4916 21.272V16.016H87.2836V12.896H87.4036C88.0756 12.896 88.5876 12.728 88.9396 12.392C89.3076 12.056 89.4916 11.552 89.4916 10.88V9.92H93.0916V12.896H96.1636V16.016H93.0916V21.032C93.0916 21.48 93.1716 21.856 93.3316 22.16C93.4916 22.448 93.7396 22.664 94.0756 22.808C94.4116 22.952 94.8276 23.024 95.3236 23.024C95.4356 23.024 95.5636 23.016 95.7076 23C95.8516 22.984 96.0036 22.968 96.1636 22.952V26C95.9236 26.032 95.6516 26.064 95.3476 26.096C95.0436 26.128 94.7556 26.144 94.4836 26.144ZM98.2731 26V12.896H101.633V16.04L101.393 15.584C101.681 14.48 102.153 13.736 102.809 13.352C103.481 12.952 104.273 12.752 105.185 12.752H105.953V15.872H104.825C103.945 15.872 103.233 16.144 102.689 16.688C102.145 17.216 101.873 17.968 101.873 18.944V26H98.2731ZM107.531 26V12.896H111.131V26H107.531ZM107.531 11.72V8.12H111.131V11.72H107.531ZM115.805 31.328C115.421 31.328 115.045 31.296 114.677 31.232C114.325 31.168 114.013 31.064 113.741 30.92V27.968C113.965 28.032 114.229 28.088 114.533 28.136C114.837 28.184 115.117 28.208 115.373 28.208C116.077 28.208 116.581 28.04 116.885 27.704C117.189 27.368 117.437 26.984 117.629 26.552L118.517 24.512L118.469 27.512L112.709 12.896H116.573L120.389 23.288H118.949L122.765 12.896H126.629L121.013 27.224C120.661 28.136 120.229 28.896 119.717 29.504C119.205 30.112 118.621 30.568 117.965 30.872C117.325 31.176 116.605 31.328 115.805 31.328Z" fill="white"/>
</svg>
